<?xml version="1.0" encoding="UTF-8" standalone="no"?>
<!-- Created with Inkscape (http://www.inkscape.org/) -->
<svg
   xmlns:svg="http://www.w3.org/2000/svg"
   xmlns="http://www.w3.org/2000/svg"
   version="1.0"
   width="717.87402"
   height="532.91339"
   id="svg2463"
   xml:space="preserve"><defs
     id="defs2466"><clipPath
       id="clipPath2480"><path
         d="M 0,630 L 414,630 L 414,0 L 0,0 L 0,630 z"
         id="path2482" /></clipPath><clipPath
       id="clipPath2486"><path
         d="M 0,630.015 L 414,630.015 L 414,0.015 L 0,0.015 L 0,630.015 z"
         id="path2488" /></clipPath><clipPath
       id="clipPath2696"><path
         d="M 380.82,452.765 L 405,452.765 L 405,383.611 L 380.82,383.611 L 380.82,452.765 z"
         id="path2698" /></clipPath><clipPath
       id="clipPath3054"><path
         d="M 0,630 L 414,630 L 414,0 L 0,0 L 0,630 z"
         id="path3056" /></clipPath><clipPath
       id="clipPath3060"><path
         d="M 0,630.015 L 414,630.015 L 414,0.015 L 0,0.015 L 0,630.015 z"
         id="path3062" /></clipPath><clipPath
       id="clipPath3082"><path
         d="M 0,630 L 414,630 L 414,598.5 L 0,598.5 L 0,630 z"
         id="path3084" /></clipPath><clipPath
       id="clipPath3090"><path
         d="M 0,0.015015 L 414,0.015015 L 414,630.015 L 0,630.015 L 0,0.015015 z"
         id="path3092" /></clipPath><clipPath
       id="clipPath3098"><path
         d="M 0,630 L 414,630 L 414,598.5 L 0,598.5 L 0,630 z"
         id="path3100" /></clipPath><clipPath
       id="clipPath3110"><path
         d="M 0,630 L 414,630 L 414,0 L 0,0 L 0,630 z"
         id="path3112" /></clipPath><clipPath
       id="clipPath3116"><path
         d="M 0,630.015 L 414,630.015 L 414,0.015 L 0,0.015 L 0,630.015 z"
         id="path3118" /></clipPath><clipPath
       id="clipPath3176"><path
         d="M 49.334,513.249 L 81.305,513.249 L 81.305,490.202 L 49.334,490.202 L 49.334,513.249 z"
         id="path3178" /></clipPath><clipPath
       id="clipPath3182"><path
         d="M 0,630 L 414,630 L 414,0 L 0,0 L 0,630 z"
         id="path3184" /></clipPath><clipPath
       id="clipPath3188"><path
         d="M 0,630.015 L 414,630.015 L 414,0.015 L 0,0.015 L 0,630.015 z"
         id="path3190" /></clipPath><clipPath
       id="clipPath3222"><path
         d="M 0,630 L 414,630 L 414,0 L 0,0 L 0,630 z"
         id="path3224" /></clipPath><clipPath
       id="clipPath3228"><path
         d="M 0,630.015 L 414,630.015 L 414,0.015 L 0,0.015 L 0,630.015 z"
         id="path3230" /></clipPath><clipPath
       id="clipPath3238"><path
         d="M 50.5,589.301 L 122.539,589.301 L 122.539,509.301 L 83.368,509.301 L 75.707,516.962 L 50.5,516.962 L 50.5,589.301"
         id="path3240" /></clipPath><clipPath
       id="clipPath3246"><path
         d="M 0,0.015015 L 414,0.015015 L 414,630.015 L 0,630.015 L 0,0.015015 z"
         id="path3248" /></clipPath><clipPath
       id="clipPath3254"><path
         d="M 50.5,589.301 L 122.539,589.301 L 122.539,509.301 L 83.368,509.301 L 75.707,516.962 L 50.5,516.962 L 50.5,589.301"
         id="path3256" /></clipPath><clipPath
       id="clipPath3266"><path
         d="M 50,589.801 L 123.039,589.801 L 123.039,508.801 L 83.161,508.801 L 75.5,516.462 L 50,516.462 L 50,589.801"
         id="path3268" /></clipPath><clipPath
       id="clipPath3276"><path
         d="M 0,630 L 414,630 L 414,0 L 0,0 L 0,630 z"
         id="path3278" /></clipPath><clipPath
       id="clipPath3282"><path
         d="M 0,630.015 L 414,630.015 L 414,0.015 L 0,0.015 L 0,630.015 z"
         id="path3284" /></clipPath><clipPath
       id="clipPath3292"><path
         d="M -396,630 L 18,630 L 18,598.5 L -396,598.5 L -396,630 z"
         id="path3294" /></clipPath><clipPath
       id="clipPath3298"><path
         d="M 0,630 L 414,630 L 414,0 L 0,0 L 0,630 z"
         id="path3300" /></clipPath><clipPath
       id="clipPath3304"><path
         d="M 0,630.015 L 414,630.015 L 414,0.015 L 0,0.015 L 0,630.015 z"
         id="path3306" /></clipPath><clipPath
       id="clipPath3312"><path
         d="M 0,0.015015 L 414,0.015015 L 414,630.015 L 0,630.015 L 0,0.015015 z"
         id="path3314" /></clipPath><clipPath
       id="clipPath3320"><path
         d="M -396,630 L 18,630 L 18,598.5 L -396,598.5 L -396,630 z"
         id="path3322" /></clipPath><clipPath
       id="clipPath3326"><path
         d="M 0,630 L 414,630 L 414,0 L 0,0 L 0,630 z"
         id="path3328" /></clipPath><clipPath
       id="clipPath3332"><path
         d="M 0,630.015 L 414,630.015 L 414,0.015 L 0,0.015 L 0,630.015 z"
         id="path3334" /></clipPath></defs><g
     transform="matrix(1.25,0,0,-1.25,-19.285963,776.15986)"
     id="g2472"><g
       transform="matrix(1.4915247,0,0,1.4915247,-19.763891,-316.78075)"
       id="g3398"><path
         d="M 370.96302,536.70772 C 353.65276,553.96254 331.68578,564.84208 307.90324,568.18217 C 276.91386,597.84106 239.43834,586.97537 239.43834,586.97537 C 247.37971,585.79733 252.64624,581.05745 250.60892,575.81864 C 249.26457,572.33996 243.49911,572.15979 240.86584,572.13207 C 232.48097,572.04891 225.26028,577.17685 219.49481,581.87515 C 213.49374,586.75362 203.69522,595.41568 194.92229,600.34959 C 178.59604,609.52444 152.65145,608.38798 133.88597,596.39969 C 145.11199,595.63743 158.61094,592.40821 166.67705,585.74189 C 171.16746,582.01374 176.89135,574.52973 172.20691,571.02333 C 168.0907,567.94656 157.95956,569.54038 152.81776,572.52013 C 144.62692,577.26001 137.26763,584.43912 132.84652,589.63635 C 103.14606,624.64493 61.055388,626.59909 26.337861,618.02018 C 49.122537,611.61719 64.326181,598.64489 73.708921,576.276 C 83.105521,553.9071 90.395509,544.38577 105.87634,538.32926 C 115.56398,534.53181 118.18339,533.83884 117.42113,529.54246 C 116.29853,523.25035 104.83689,526.27167 96.077819,529.68106 C 85.420023,533.8527 71.366701,545.34206 62.995689,566.90712 C 64.520211,539.00836 69.842179,519.23115 85.572475,504.26312 C 92.252654,497.9017 104.51813,491.3324 123.72711,483.94539 C 135.97872,479.21938 145.68022,476.37822 154.8135,468.18738 C 165.45743,458.65219 160.92545,452.34621 153.85721,453.53811 C 145.87425,454.89632 140.16423,463.05944 140.16423,463.05944 C 140.16423,463.05944 140.17809,417.60096 196.36366,400.11054 C 201.03424,392.34933 206.68883,385.11478 213.27199,378.55934 C 234.39355,357.49321 262.45862,345.9207 292.28382,345.96228 C 322.10901,346.00386 350.1325,357.67338 371.19862,378.79495 C 392.25089,399.91651 403.8234,427.96771 403.78182,457.79291 C 403.74024,487.61811 392.08458,515.64159 370.96302,536.70772"
         id="path3194"
         style="fill:#102b5b;fill-opacity:1;fill-rule:nonzero;stroke:none" /><path
         d="M 365.01738,531.05313 C 348.2615,547.80901 326.75187,558.07875 303.5237,560.615 C 283.55246,580.5308 263.6228,579.60223 263.6228,579.60223 C 272.36801,574.11395 267.86374,561.90391 248.4053,559.21521 C 229.12702,556.55422 204.65151,563.08195 192.73252,576.96896 C 180.43933,591.28561 171.16746,591.937 171.16746,591.937 C 181.82526,585.27068 182.58752,577.28773 189.05981,565.11927 C 195.51824,552.93695 208.83702,548.55741 220.43725,547.79515 C 232.66114,547.00517 232.95219,541.47531 223.09823,535.62669 C 212.35728,529.25142 202.83594,535.28021 195.93402,542.08512 C 185.0129,552.85379 174.13335,554.91883 159.10988,554.7248 C 144.08641,554.53077 124.22604,552.56275 107.4563,558.84101 C 90.686554,565.11927 79.626839,587.18326 79.626839,587.18326 C 87.928555,557.88472 106.34755,543.99771 123.44992,540.64376 C 146.04057,536.20878 161.64613,530.83138 171.20904,523.09789 C 180.53634,515.53072 185.49797,507.99127 189.01823,497.56908 C 191.72079,489.54455 192.20587,478.88675 189.53102,478.24922 C 186.41268,477.50082 185.77516,481.7972 182.10244,489.28122 C 178.04167,497.54136 173.20478,504.02751 163.44784,509.2386 C 150.21221,516.29298 137.26763,515.8772 124.07359,515.69703 C 113.60982,515.55844 107.48402,516.75034 107.48402,516.75034 C 107.48402,516.75034 107.91365,515.33669 124.96058,511.51153 C 143.94781,507.25672 162.31138,496.54349 174.53527,470.4603 C 184.92974,448.27158 179.4969,432.65215 156.46275,439.72039 C 156.46275,439.72039 167.21756,415.79925 202.36473,407.28965 C 206.89672,399.3067 212.53745,391.89198 219.20377,385.23952 C 238.67607,365.75335 264.56523,355.02626 292.1175,355.02626 C 319.65592,355.02626 345.54507,365.75335 365.01738,385.23952 C 384.48969,404.71182 395.21678,430.60098 395.21678,458.13939 C 395.21678,485.67781 384.48969,511.56696 365.01738,531.05313"
         id="path3196"
         style="fill:#51a5e0;fill-opacity:1;fill-rule:nonzero;stroke:none" /><path
         d="M 292.1175,556.20774 C 318.31157,556.20774 342.92567,546.0073 361.45554,527.49129 C 379.98542,508.96142 390.17199,484.33345 390.17199,458.13939 C 390.17199,404.06043 346.1826,360.07104 292.1175,360.07104 C 265.90958,360.07104 241.29548,370.27148 222.76561,388.80135 C 204.24959,407.31737 194.03529,431.94533 194.03529,458.13939 C 194.03529,484.33345 204.24959,508.96142 222.76561,527.49129 C 241.29548,546.0073 265.90958,556.20774 292.1175,556.20774"
         id="path3198"
         style="fill:#ffffff;fill-opacity:1;fill-rule:nonzero;stroke:none" /><path
         d="M 292.24224,368.52521 C 242.75071,368.45591 202.57262,408.52313 202.50332,458.0008 C 202.43403,507.49233 242.48738,547.67042 291.97891,547.73971 C 341.47044,547.82287 381.64853,507.75566 381.71783,458.26413 C 381.78712,408.77259 341.71991,368.60837 292.24224,368.52521"
         id="path3200"
         style="fill:#102b5b;fill-opacity:1;fill-rule:nonzero;stroke:none" /><path
         d="M 270.1921,476.26735 L 243.6377,476.26735 L 234.89249,460.66178 L 223.12595,494.03496 L 360.84573,494.03496 L 349.09305,460.66178 L 340.41714,476.26735 L 314.30623,476.26735 L 292.20066,379.54335 L 270.1921,476.26735"
         id="path3202"
         style="fill:#ffffff;fill-opacity:1;fill-rule:nonzero;stroke:none" /><path
         d="M 360.84573,494.03496 L 223.12595,494.03496 L 225.35729,487.71512 L 291.02262,487.71512 L 270.1921,476.26735 L 292.20066,379.55721 L 292.20066,487.71512 L 358.61439,487.71512 L 360.84573,494.03496"
         id="path3204"
         style="fill:#d3d3d3;fill-opacity:1;fill-rule:nonzero;stroke:none" /><path
         d="M 224.49802,571.4391 C 204.52678,572.00734 196.37751,579.92099 183.97345,589.88582 C 168.79752,602.082 151.95848,598.68647 151.95848,598.68647 C 162.04805,604.45194 181.8807,604.68755 196.15577,592.1726 C 208.90631,580.9743 215.17071,574.90393 224.49802,571.4391"
         id="path3206"
         style="fill:#d01c24;fill-opacity:1;fill-rule:nonzero;stroke:none" /><path
         d="M 54.028727,615.4285 C 54.028727,615.4285 72.711052,615.87199 89.037298,586.57345 C 102.77186,561.93163 128.96592,556.99772 148.13332,562.43056 C 148.13332,562.43056 122.88169,563.08195 109.07783,587.55746 C 94.955216,612.57348 76.28675,619.54471 54.028727,615.4285"
         id="path3208"
         style="fill:#d01c24;fill-opacity:1;fill-rule:nonzero;stroke:none" /><path
         d="M 159.8167,473.52321 C 159.8167,473.52321 157.16958,500.75671 118.3497,508.65651 C 79.280357,516.61174 74.235574,536.94333 74.235574,536.94333 C 74.235574,536.94333 74.498901,507.61706 108.1354,498.60852 C 131.61304,492.30255 148.84014,488.69913 159.8167,473.52321"
         id="path3210"
         style="fill:#d01c24;fill-opacity:1;fill-rule:nonzero;stroke:none" /><path
         d="M 305.57488,502.65544 L 300.29449,518.35802 L 313.64098,528.17039 L 297.07913,528.01794 L 291.86804,543.74824 L 286.90641,527.93479 L 270.3307,527.83777 L 283.82965,518.23328 L 278.79872,502.44755 L 292.10364,512.31536 L 305.57488,502.65544"
         id="path3212"
         style="fill:#d01c24;fill-opacity:1;fill-rule:nonzero;stroke:none" /><path
         d="M 246.45114,447.1074 L 235.47458,434.68947 L 220.29865,441.34193 L 228.7251,427.08072 L 217.70697,414.70437 L 233.88076,418.30779 L 242.25177,404.005 L 243.81787,420.49755 L 260.00552,424.03167 L 244.80188,430.6287 L 246.45114,447.1074"
         id="path3214"
         style="fill:#d01c24;fill-opacity:1;fill-rule:nonzero;stroke:none" /><path
         d="M 324.10475,423.67133 L 340.34784,420.38668 L 342.16341,403.92184 L 350.31267,418.34936 L 366.5419,414.99542 L 355.32973,427.20545 L 363.53444,441.60526 L 348.46939,434.71719 L 337.31266,446.9688 L 339.21138,430.50396 L 324.10475,423.67133"
         id="path3216"
         style="fill:#d01c24;fill-opacity:1;fill-rule:nonzero;stroke:none" /></g></g></svg>