<?xml version="1.0" encoding="UTF-8" standalone="no"?>
<!-- Created with Inkscape (http://www.inkscape.org/) -->

<svg
   xmlns:dc="http://purl.org/dc/elements/1.1/"
   xmlns:cc="http://creativecommons.org/ns#"
   xmlns:rdf="http://www.w3.org/1999/02/22-rdf-syntax-ns#"
   xmlns:svg="http://www.w3.org/2000/svg"
   xmlns="http://www.w3.org/2000/svg"
   xmlns:sodipodi="http://sodipodi.sourceforge.net/DTD/sodipodi-0.dtd"
   xmlns:inkscape="http://www.inkscape.org/namespaces/inkscape"
   width="219.69012"
   height="207.48"
   id="svg2876"
   version="1.1"
   inkscape:version="0.47 r22583"
   sodipodi:docname="New document 2">
  <defs
     id="defs2878">
    <inkscape:perspective
       sodipodi:type="inkscape:persp3d"
       inkscape:vp_x="0 : 526.18109 : 1"
       inkscape:vp_y="0 : 1000 : 0"
       inkscape:vp_z="744.09448 : 526.18109 : 1"
       inkscape:persp3d-origin="372.04724 : 350.78739 : 1"
       id="perspective2884" />
    <inkscape:perspective
       id="perspective2847"
       inkscape:persp3d-origin="0.5 : 0.33333333 : 1"
       inkscape:vp_z="1 : 0.5 : 1"
       inkscape:vp_y="0 : 1000 : 0"
       inkscape:vp_x="0 : 0.5 : 1"
       sodipodi:type="inkscape:persp3d" />
  </defs>
  <sodipodi:namedview
     id="base"
     pagecolor="#ffffff"
     bordercolor="#666666"
     borderopacity="1.0"
     inkscape:pageopacity="0.0"
     inkscape:pageshadow="2"
     inkscape:zoom="0.35"
     inkscape:cx="-95.154932"
     inkscape:cy="349.45429"
     inkscape:document-units="px"
     inkscape:current-layer="layer1"
     showgrid="false"
     inkscape:window-width="550"
     inkscape:window-height="481"
     inkscape:window-x="88"
     inkscape:window-y="116"
     inkscape:window-maximized="0" />
  <metadata
     id="metadata2881">
    <rdf:RDF>
      <cc:Work
         rdf:about="">
        <dc:format>image/svg+xml</dc:format>
        <dc:type
           rdf:resource="http://purl.org/dc/dcmitype/StillImage" />
        <dc:title></dc:title>
      </cc:Work>
    </rdf:RDF>
  </metadata>
  <g
     inkscape:label="Layer 1"
     inkscape:groupmode="layer"
     id="layer1"
     transform="translate(-470.15493,-674.33647)">
    <g
       transform="translate(454.28571,508.57143)"
       id="layer1-1">
      <g
         transform="matrix(1.25,0,0,1.25,15.869222,165.76504)"
         id="g8"
         style="fill:#dce0e5;fill-rule:evenodd;stroke:none">
        <path
           d="m 163.149,66.457 c 0,0 10.395,-1.5752 12.285,-11.3389 C 177.323,45.3545 170.677,37.5517 158.74,32.126 141.417,24.2519 120.63,16.6933 76.8506,6.9297 53.21,1.6562 46.6143,0 46.6143,0 46.6143,0 0,49.7637 0,49.7637 c 0,0 40,-1.2598 40,-1.2598 0,0 -13.2285,20.1572 -11.0234,53.2281 2.2041,33.071 16.2802,49.593 27.4013,57.008 7.5596,5.039 17.9532,7.244 17.9532,7.244 0,0 -5.3545,-7.559 -3.7803,-17.008 1.5752,-9.449 5.3545,-14.488 8.1894,-19.528 2.835,-5.039 21.1029,-40.9439 21.1029,-40.9439 0,0 6.6139,0 9.4479,0.314 2.835,0.316 4.725,1.575 4.725,3.151 0,1.574 -1.89,3.779 -1.89,3.779 0,0 9.449,0.63 21.732,-4.095 12.284,-4.723 16.378,-12.5984 16.378,-12.5984 0,0 -5.354,-6.6133 -11.653,-11.6533 -6.3,-5.0391 -11.339,-8.1885 -11.339,-8.1885 0,0 27.717,0 27.717,0 0,0 5.354,0 7.244,1.5742 1.89,1.5752 0.944,5.6699 0.944,5.6699 z"
           id="path10" />
      </g>
      <g
         transform="matrix(1.25,0,0,1.25,35.15996,174.42716)"
         id="g12"
         style="fill:#ffffff;fill-rule:evenodd;stroke:none">
        <path
           d="m 150.709,55.5898 c 0,0 5.985,-1.8896 6.773,-8.0312 0.787,-6.1416 -2.678,-10.5508 -4.567,-12.4414 -1.89,-1.8897 -10.237,-7.8741 -24.883,-13.0704 C 115.97,17.7666 97.6385,12.9131 64.7246,5.5117 43.3604,0.707 34.3311,0 34.3311,0 34.3311,0 0,37.0078 0,37.0078 c 0,0 35.4336,-0.1582 35.4336,-0.1582 0,0 -14.6494,17.9697 -15.9053,53.5428 -1.8896,53.5436 34.3311,64.8816 34.3311,64.8816 0,0 -3.4648,-6.299 -2.5205,-13.543 0.9453,-7.244 4.0947,-12.913 7.5596,-19.213 3.4648,-6.299 22.362,-43.7778 22.362,-43.7778 0,0 10.866,0 13.228,0 2.362,0 5.6705,1.2602 6.9285,2.9912 1.261,1.732 0.63,3.149 0.63,3.149 0,0 9.141,0.645 15.276,-2.046 8.976,-3.937 13.702,-9.9213 13.702,-9.9213 0,0 -6.3,-7.5586 -15.591,-13.3858 -9.291,-5.8271 -17.1655,-9.7637 -17.1655,-9.7637 0,0 43.9375,0 43.9375,0 0,0 5.353,0 6.929,1.417 1.574,1.417 1.574,4.4092 1.574,4.4092 z"
           id="path14" />
      </g>
      <g
         transform="matrix(1.25,0,0,1.25,54.45196,181.11904)"
         id="g16"
         style="fill:#161413;fill-rule:evenodd;stroke:none">
        <path
           d="m 137.165,46.2998 c 0,0 2.835,-1.5723 2.835,-6.2998 0,-3.6221 -3.465,-7.874 -6.299,-9.9209 -2.835,-2.0469 -8.976,-5.8272 -19.055,-9.1338 C 104.568,17.6377 83.3069,12.4414 65.0389,8.6621 46.7715,4.8818 17.0078,0 17.0078,0 c 0,0 2.6778,3.9375 2.6778,3.9375 C 19.6856,3.9375 0,25.04 0,25.04 c 0,0 69.9209,5.5117 69.9209,5.5117 0,0 -0.63,0.7872 -0.63,0.7872 0,0 -46.7714,0 -46.7714,0 0,0 3.4649,3.4648 3.4649,3.4648 0,0 -7.5596,13.3857 -7.5596,13.3857 0,0 39.3701,-8.1894 39.3701,-8.1894 0,0 -1.1015,1.1025 -1.1015,1.1025 0,0 -45.9844,15.5908 -45.9844,15.5908 0,0 3.9365,2.5196 3.9365,2.5196 0,0 -1.417,2.6767 -2.3623,8.3467 -0.9443,5.6689 -1.5742,11.0233 -1.5742,11.0233 0,0 39.3701,-24.0946 39.3701,-24.0946 0,0 -0.1582,0.9453 -0.1582,0.9453 0,0 -43.4639,34.6453 -43.4639,34.6453 0,0 4.0938,1.102 4.0938,1.102 0,0 0.1582,7.402 0.9453,11.8111 0.7871,4.409 2.0469,9.449 2.0469,9.449 0,0 35.5908,-41.8893 35.5908,-41.8893 0,0 0,1.417 0,1.417 0,0 -35.1182,51.6533 -35.1182,51.6533 0,0 3.4649,0 3.4649,0 0,0 1.8896,5.512 6.2988,11.181 4.4102,5.67 10.8662,10.236 10.8662,10.236 0,0 -2.3916,-4.946 -1.417,-13.227 0.6299,-5.355 5.9844,-14.174 8.5039,-19.213 2.5196,-5.04 34.6455,-68.5043 34.6455,-68.5043 0,0 -6.142,-3.3076 -6.142,-3.3076 0,0 59.6861,0 59.6861,0 0,0 3.622,0.4727 5.354,1.8906 1.732,1.417 1.889,3.6221 1.889,3.6221 z"
           id="path18" />
      </g>
      <g
         transform="matrix(1.25,0,0,1.25,199.53184,221.86729)"
         id="g20"
         style="fill:#ffffff;fill-rule:evenodd;stroke:none">
        <path
           d="m 21.574,9.7637 c 0,0 0.788,-2.9922 -0.63,-5.5117 C 19.527,1.7324 16.377,0 16.377,0 c 0,0 0.63,3.1494 0.63,3.1494 0,0 -16.378,2.0479 -16.378,2.0479 0,0 -0.629,0.9443 -0.629,0.9443 0,0 15.905,0 15.905,0 0,0 1.653,0.0791 3.465,1.1817 1.533,0.9336 2.204,2.4404 2.204,2.4404 z"
           id="path22" />
      </g>
      <g
         transform="matrix(1.25,0,0,1.25,201.30309,213.40291)"
         id="g24"
         style="fill:#ffffff;fill-rule:evenodd;stroke:none">
        <path
           d="m 12.441,8.1895 c 0,0 -1.732,-2.3623 -4.567,-4.0947 C 5.039,2.3623 0,0 0,0 c 0,0 3.464,2.9131 5.196,4.961 1.732,2.0468 2.205,3.0703 2.205,3.0703 0,0 5.04,0.1582 5.04,0.1582 z"
           id="path26" />
      </g>
      <g
         transform="matrix(1.25,0,0,1.25,76.893335,194.70179)"
         id="g28"
         style="fill:#b01742;fill-rule:evenodd;stroke:none">
        <path
           d="m 93.2288,17.9531 c 0,0 -21.002,-5.6806 -45.355,-10.3935 C 23.4639,2.835 5.5118,0 5.5118,0 5.5118,0 0,6.457 0,6.457 c 0,0 93.0708,12.5987 93.0708,12.5987 0,0 0.158,-1.1026 0.158,-1.1026 z"
           id="path30" />
      </g>
      <g
         transform="matrix(1.25,0,0,1.25,87.227835,226.00066)"
         id="g32"
         style="fill:#b01742;fill-rule:evenodd;stroke:none">
        <path
           d="m 28.4248,0 c 0,0 -25.1963,0.4726 -25.1963,0.4726 0,0 -3.2285,5.6699 -3.2285,5.6699 0,0 28.1104,-5.3545 28.1104,-5.3545 0,0 0.3144,-0.788 0.3144,-0.788 z"
           id="path34" />
      </g>
      <g
         transform="matrix(1.25,0,0,1.25,75.612835,244.40641)"
         id="g36"
         style="fill:#b01742;fill-rule:evenodd;stroke:none">
        <path
           d="m 29.1348,0 c 0,0 -27.3232,9.8427 -27.3232,9.8427 0,0 -1.8116,7.2442 -1.8116,7.2442 0,0 28.6621,-15.9844 28.6621,-15.9844 0,0 0.4727,-1.1025 0.4727,-1.1025 z"
           id="path38" />
      </g>
      <g
         transform="matrix(1.25,0,0,1.25,74.03821,267.43866)"
         id="g40"
         style="fill:#b01742;fill-rule:evenodd;stroke:none">
        <path
           d="M 26.5361,0 C 26.5361,0 0,22.4402 0,22.4402 c 0,0 0.0791,2.913 0.3154,4.331 0.2363,1.417 0.6299,3.15 0.6299,3.15 0,0 25.6689,-28.6615 25.6689,-28.6615 0,0 -0.0781,-1.2597 -0.0781,-1.2597 z"
           id="path42" />
      </g>
      <g
         transform="matrix(1.25,0,0,1.25,84.27496,289.97641)"
         id="g44"
         style="fill:#b01742;fill-rule:evenodd;stroke:none">
        <path
           d="m 23.1494,0 c 0,0 -7.6377,11.261 -12.834,19.214 C 5.1182,27.166 0,34.804 0,34.804 c 0,0 1.1807,2.362 1.9688,3.622 0.7871,1.26 2.0468,2.835 2.0468,2.835 0,0 19.6856,-40.552 19.6856,-40.552 0,0 -0.5518,-0.709 -0.5518,-0.709 z"
           id="path46" />
      </g>
      <g
         transform="matrix(1.25,0,0,1.25,139.58934,237.81216)"
         id="g48"
         style="fill:#161413;fill-rule:evenodd;stroke:none">
        <path
           d="m 10.473,0 c 0,0 13.937,6.8506 21.417,11.8906 7.481,5.0391 12.599,10.4717 12.599,10.4717 0,0 -1.575,2.3623 -5.355,4.8027 -3.779,2.4414 -7.717,3.0714 -7.717,3.0714 0,0 2.993,-2.6769 3.229,-4.0157 0.236,-1.3389 -0.314,-1.6533 -1.103,-1.6533 -0.787,0 -8.661,0 -8.661,0 0,0 -1.417,1.0234 -1.339,3.1494 0.08,2.1256 1.103,3.4636 1.103,3.4636 0,0 -2.756,-0.393 -4.725,-2.6765 -1.968,-2.2832 -1.968,-3.9365 -1.968,-3.9365 0,0 -17.953,0 -17.953,0 0,0 11.26,-22.126 11.26,-22.126 C 11.26,2.4414 10.473,0 10.473,0 z"
           id="path50" />
      </g>
      <g
         transform="matrix(1.25,0,0,1.25,147.56184,259.76153)"
         id="g52"
         style="fill:#b01742;fill-rule:evenodd;stroke:none">
        <path
           d="m 2.205,0 c 0,0 20.079,3.0704 20.079,3.0704 0,0 -0.473,0.9453 -0.473,0.9453 0,0 -21.811,0 -21.811,0 C 0,4.0157 2.205,0 2.205,0 z"
           id="path54" />
      </g>
    </g>
  </g>
</svg>
