<svg id="elnvjQuTUoG1" xmlns="http://www.w3.org/2000/svg" xmlns:xlink="http://www.w3.org/1999/xlink" viewBox="0 0 512.001 512.001" shape-rendering="geometricPrecision" text-rendering="geometricPrecision"><g transform="matrix(1.507105 0 0 1.60016-38.644622-309.166926)"><path d="M178.866475,287.593182c-26.685069,22.601231-27.569934,66.588225,0,93.881435c26.671692-25.633966,31.37917-66.440466,0-93.881435Z" transform="matrix(-.028714-1.463944 1.358162-.026639-269.381309 607.382293)" fill="#c79a25" stroke="#000" stroke-width="0.2" stroke-miterlimit="18"/><path d="M138.761961,315.719666c15.038429-12.025138,49.413808-20.583796,82.304072-.483703" transform="matrix(1.019888 0.015131-.015293 1.03079 1.746958-10.184158)" fill="none" stroke="#fcfcc4" stroke-width="1.5"/><path d="M138.761961,315.719666c15.038429-12.025138,49.413808-20.583796,82.304072-.483703" transform="matrix(1.029897 0.014601-.014743 1.039895-.224151-13.132938)" fill="none" stroke="#000" stroke-width="0.2"/></g><rect width="4.441015" height="7.73" rx="0" ry="0" transform="matrix(.898924 0.056453 0.09212-1.466882 237.738772 188.907837)" fill="#fcfcc4" stroke="#000" stroke-width="0.2"/><rect width="4.441015" height="7.73" rx="0" ry="0" transform="matrix(.847154 0.305912 0.499194-1.382402 265.932816 194.652363)" fill="#fcfcc4" stroke="#000" stroke-width="0.2"/><rect width="4.441015" height="7.73" rx="0" ry="0" transform="matrix(.803912 0.406173 0.662801-1.31184 279.207094 200.649919)" fill="#fcfcc4" stroke="#000" stroke-width="0.2"/><rect width="4.441015" height="7.73" rx="0" ry="0" transform="matrix(.883313 0.176098 0.28736-1.441407 252.928452 191.190763)" fill="#fcfcc4" stroke="#000" stroke-width="0.2"/><rect width="4.441015" height="7.73" rx="0" ry="0" transform="matrix(.844885-.312123-.509329-1.3787 195.569538 194.842246)" fill="#fcfcc4" stroke="#000" stroke-width="0.2"/><rect width="4.441015" height="7.73" rx="0" ry="0" transform="matrix(.898561-.061961-.101108-1.46629 222.096602 188.988235)" fill="#fcfcc4" stroke="#000" stroke-width="0.2"/><rect width="4.441015" height="7.73" rx="0" ry="0" transform="matrix(.878473-.19884-.324472-1.433509 208.035888 191.392447)" fill="#fcfcc4" stroke="#000" stroke-width="0.2"/><rect width="4.441015" height="7.73" rx="0" ry="0" transform="matrix(.782952-.445239-.726551-1.277636 183.17628 200.853442)" fill="#fcfcc4" stroke="#000" stroke-width="0.2"/></svg>
