<svg id="eGhur8PZWAi1" xmlns="http://www.w3.org/2000/svg" xmlns:xlink="http://www.w3.org/1999/xlink" viewBox="0 0 512.001 512.001" shape-rendering="geometricPrecision" text-rendering="geometricPrecision"><g transform="matrix(1 0 0 1.00462 0.000001 30.321511)"><g transform="matrix(1 0 0 1.04696 0.000119 0.825729)"><g transform="matrix(1.000001 0 0 0.819478 0.000583-81.823266)"><g><path d="M344.381,143.771C254.765,56.017,102.37,103.776,79.825,227.7c-31.849,4.598-59.138,25.445-72.018,55.076-.016.035-.032.07-.047.107-26.687,61.602,18.784,130.232,85.51,130.232h282.267C450.783,413.115,512,351.899,512,276.653c0-87.412-81.686-152.971-167.619-132.882ZM375.537,381.12h-282.266c-69.246,0-84.534-98.263-18.714-119.456c14.753-4.65,43.01-7.348,74.38,21.892c6.464,6.024,16.586,5.667,22.61-.794c6.024-6.464,5.668-16.586-.794-22.61-17.93-16.712-38.071-27.33-58.484-31.453c22.034-99.077,147.374-131.851,215.247-56.305c4.189,4.661,10.714,6.451,16.693,4.57c67.272-21.117,135.795,29.374,135.795,99.69.001,57.602-46.863,104.466-104.467,104.466Z"/></g></g><ellipse rx="161.986823" ry="79.968179" transform="translate(320.10487 159.984577)" stroke-width="0"/><ellipse rx="176.340086" ry="55.992827" transform="matrix(1.162792 0 0 1 231.934827 183.959929)" stroke-width="0"/><ellipse rx="120.294011" ry="84.095734" transform="translate(231.934827 99.864195)" stroke-width="0"/><ellipse rx="70.399337" ry="69.715848" transform="matrix(1.097087 0 0 1 411.692356 125.126653)" stroke-width="0"/><ellipse rx="43.059788" ry="21.18815" transform="translate(357.01326 69.764068)" stroke-width="0"/><ellipse rx="72.957906" ry="30.060191" transform="translate(114.37477 209.892565)" stroke-width="0"/><ellipse rx="53.312119" ry="8.885353" transform="matrix(1.28205 0 0 5.926074 95.236788 177.781912)" stroke-width="0"/></g><g transform="matrix(-.002868 0.604275-.741057-.003518 407.297777 144.21324)"><path d="" fill="none" stroke="#3f5787" stroke-width="1.024002"/><path d="M178.866475,287.593182c-26.685069,22.601231-27.569934,66.588225,0,93.881435c26.671692-25.633966,31.37917-66.440466,0-93.881435Z" transform="matrix(-.028714-1.463944 1.358162-.026639-269.381309 607.382293)" fill="#c79a25" stroke="#000" stroke-width="2" stroke-opacity="0.06" stroke-miterlimit="18"/><path d="M139.428643,311.545986l5,5" transform="matrix(.973184 0.230028-.230028 0.973184 80.581755-23.718098)" fill="none" stroke="#fcfcc4" stroke-width="2.5"/><path d="M139.428643,311.545986l5,5" transform="matrix(.927463 0.373914-.373914 0.927463 141.030913-33.433705)" fill="none" stroke="#fcfcc4" stroke-width="2.5"/><path d="M139.428643,311.545986l5,5" transform="matrix(.5344 0.845232-.845232 0.5344 385.897554 21.096424)" fill="none" stroke="#fcfcc4" stroke-width="2.5"/><path d="M139.428643,311.545986l5,5" transform="matrix(.767808 0.64068-.64068 0.767808 266.920773-25.07107)" fill="none" stroke="#fcfcc4" stroke-width="2.5"/><path d="M139.428643,311.545986l5,5" transform="matrix(.300317 0.95384-.95384 0.300317 471.253844 85.566023)" fill="none" stroke="#fcfcc4" stroke-width="2.5"/><path d="M139.428643,311.545986l5,5" transform="matrix(.4583 0.888797-.888797 0.4583 419.51234 41.561841)" fill="none" stroke="#fcfcc4" stroke-width="2.5"/><path d="M139.428643,311.545986l5,5" transform="matrix(.843012 0.537894-.537894 0.843012 214.230166-32.800746)" fill="none" stroke="#fcfcc4" stroke-width="2.5"/><path d="M138.761961,315.719666c15.038429-12.025138,49.413808-20.583796,82.304072-.483703" transform="matrix(.999912 0.01327-.01327 0.999912 4.705856 0.141228)" fill="none" stroke="#fcfcc4" stroke-width="2"/><path d="M139.428643,311.545986l5,5" transform="matrix(.647374 0.762172-.762172 0.647374 333.032561-4.205501)" fill="none" stroke="#fcfcc4" stroke-width="2.5"/></g><g transform="matrix(-.002868 0.604275-.741057-.003518 569.2846 225.860495)"><path d="" fill="none" stroke="#3f5787" stroke-width="1.024002"/><path d="M178.866475,287.593182c-26.685069,22.601231-27.569934,66.588225,0,93.881435c26.671692-25.633966,31.37917-66.440466,0-93.881435Z" transform="matrix(-.028714-1.463944 1.358162-.026639-269.381309 607.382293)" fill="#c79a25" stroke="#000" stroke-width="2" stroke-opacity="0.06" stroke-miterlimit="18"/><path d="M139.428643,311.545986l5,5" transform="matrix(.973184 0.230028-.230028 0.973184 80.581755-23.718098)" fill="none" stroke="#fcfcc4" stroke-width="2.5"/><path d="M139.428643,311.545986l5,5" transform="matrix(.927463 0.373914-.373914 0.927463 141.030913-33.433705)" fill="none" stroke="#fcfcc4" stroke-width="2.5"/><path d="M139.428643,311.545986l5,5" transform="matrix(.5344 0.845232-.845232 0.5344 385.897554 21.096424)" fill="none" stroke="#fcfcc4" stroke-width="2.5"/><path d="M139.428643,311.545986l5,5" transform="matrix(.767808 0.64068-.64068 0.767808 266.920773-25.07107)" fill="none" stroke="#fcfcc4" stroke-width="2.5"/><path d="M139.428643,311.545986l5,5" transform="matrix(.300317 0.95384-.95384 0.300317 471.253844 85.566023)" fill="none" stroke="#fcfcc4" stroke-width="2.5"/><path d="M139.428643,311.545986l5,5" transform="matrix(.4583 0.888797-.888797 0.4583 419.51234 41.561841)" fill="none" stroke="#fcfcc4" stroke-width="2.5"/><path d="M139.428643,311.545986l5,5" transform="matrix(.843012 0.537894-.537894 0.843012 214.230166-32.800746)" fill="none" stroke="#fcfcc4" stroke-width="2.5"/><path d="M138.761961,315.719666c15.038429-12.025138,49.413808-20.583796,82.304072-.483703" transform="matrix(.999912 0.01327-.01327 0.999912 4.705856 0.141228)" fill="none" stroke="#fcfcc4" stroke-width="2"/><path d="M139.428643,311.545986l5,5" transform="matrix(.647374 0.762172-.762172 0.647374 333.032561-4.205501)" fill="none" stroke="#fcfcc4" stroke-width="2.5"/></g><g transform="matrix(-.002868 0.604275-.741057-.003518 460.488131 227.122235)"><path d="" fill="none" stroke="#3f5787" stroke-width="1.024002"/><path d="M178.866475,287.593182c-26.685069,22.601231-27.569934,66.588225,0,93.881435c26.671692-25.633966,31.37917-66.440466,0-93.881435Z" transform="matrix(-.028714-1.463944 1.358162-.026639-269.381309 607.382293)" fill="#c79a25" stroke="#000" stroke-width="2" stroke-opacity="0.06" stroke-miterlimit="18"/><path d="M139.428643,311.545986l5,5" transform="matrix(.973184 0.230028-.230028 0.973184 80.581755-23.718098)" fill="none" stroke="#fcfcc4" stroke-width="2.5"/><path d="M139.428643,311.545986l5,5" transform="matrix(.927463 0.373914-.373914 0.927463 141.030913-33.433705)" fill="none" stroke="#fcfcc4" stroke-width="2.5"/><path d="M139.428643,311.545986l5,5" transform="matrix(.5344 0.845232-.845232 0.5344 385.897554 21.096424)" fill="none" stroke="#fcfcc4" stroke-width="2.5"/><path d="M139.428643,311.545986l5,5" transform="matrix(.767808 0.64068-.64068 0.767808 266.920773-25.07107)" fill="none" stroke="#fcfcc4" stroke-width="2.5"/><path d="M139.428643,311.545986l5,5" transform="matrix(.300317 0.95384-.95384 0.300317 471.253844 85.566023)" fill="none" stroke="#fcfcc4" stroke-width="2.5"/><path d="M139.428643,311.545986l5,5" transform="matrix(.4583 0.888797-.888797 0.4583 419.51234 41.561841)" fill="none" stroke="#fcfcc4" stroke-width="2.5"/><path d="M139.428643,311.545986l5,5" transform="matrix(.843012 0.537894-.537894 0.843012 214.230166-32.800746)" fill="none" stroke="#fcfcc4" stroke-width="2.5"/><path d="M138.761961,315.719666c15.038429-12.025138,49.413808-20.583796,82.304072-.483703" transform="matrix(.999912 0.01327-.01327 0.999912 4.705856 0.141228)" fill="none" stroke="#fcfcc4" stroke-width="2"/><path d="M139.428643,311.545986l5,5" transform="matrix(.647374 0.762172-.762172 0.647374 333.032561-4.205501)" fill="none" stroke="#fcfcc4" stroke-width="2.5"/></g><g transform="matrix(-.002868 0.604275-.741057-.003518 400.147907 274.483409)"><path d="" fill="none" stroke="#3f5787" stroke-width="1.024002"/><path d="M178.866475,287.593182c-26.685069,22.601231-27.569934,66.588225,0,93.881435c26.671692-25.633966,31.37917-66.440466,0-93.881435Z" transform="matrix(-.028714-1.463944 1.358162-.026639-269.381309 607.382293)" fill="#c79a25" stroke="#000" stroke-width="2" stroke-opacity="0.06" stroke-miterlimit="18"/><path d="M139.428643,311.545986l5,5" transform="matrix(.973184 0.230028-.230028 0.973184 80.581755-23.718098)" fill="none" stroke="#fcfcc4" stroke-width="2.5"/><path d="M139.428643,311.545986l5,5" transform="matrix(.927463 0.373914-.373914 0.927463 141.030913-33.433705)" fill="none" stroke="#fcfcc4" stroke-width="2.5"/><path d="M139.428643,311.545986l5,5" transform="matrix(.5344 0.845232-.845232 0.5344 385.897554 21.096424)" fill="none" stroke="#fcfcc4" stroke-width="2.5"/><path d="M139.428643,311.545986l5,5" transform="matrix(.767808 0.64068-.64068 0.767808 266.920773-25.07107)" fill="none" stroke="#fcfcc4" stroke-width="2.5"/><path d="M139.428643,311.545986l5,5" transform="matrix(.300317 0.95384-.95384 0.300317 471.253844 85.566023)" fill="none" stroke="#fcfcc4" stroke-width="2.5"/><path d="M139.428643,311.545986l5,5" transform="matrix(.4583 0.888797-.888797 0.4583 419.51234 41.561841)" fill="none" stroke="#fcfcc4" stroke-width="2.5"/><path d="M139.428643,311.545986l5,5" transform="matrix(.843012 0.537894-.537894 0.843012 214.230166-32.800746)" fill="none" stroke="#fcfcc4" stroke-width="2.5"/><path d="M138.761961,315.719666c15.038429-12.025138,49.413808-20.583796,82.304072-.483703" transform="matrix(.999912 0.01327-.01327 0.999912 4.705856 0.141228)" fill="none" stroke="#fcfcc4" stroke-width="2"/><path d="M139.428643,311.545986l5,5" transform="matrix(.647374 0.762172-.762172 0.647374 333.032561-4.205501)" fill="none" stroke="#fcfcc4" stroke-width="2.5"/></g><g transform="matrix(-.002868 0.604275-.741057-.003518 526.818912 291.164284)"><path d="" fill="none" stroke="#3f5787" stroke-width="1.024002"/><path d="M178.866475,287.593182c-26.685069,22.601231-27.569934,66.588225,0,93.881435c26.671692-25.633966,31.37917-66.440466,0-93.881435Z" transform="matrix(-.028714-1.463944 1.358162-.026639-269.381309 607.382293)" fill="#c79a25" stroke="#000" stroke-width="2" stroke-opacity="0.06" stroke-miterlimit="18"/><path d="M139.428643,311.545986l5,5" transform="matrix(.973184 0.230028-.230028 0.973184 80.581755-23.718098)" fill="none" stroke="#fcfcc4" stroke-width="2.5"/><path d="M139.428643,311.545986l5,5" transform="matrix(.927463 0.373914-.373914 0.927463 141.030913-33.433705)" fill="none" stroke="#fcfcc4" stroke-width="2.5"/><path d="M139.428643,311.545986l5,5" transform="matrix(.5344 0.845232-.845232 0.5344 385.897554 21.096424)" fill="none" stroke="#fcfcc4" stroke-width="2.5"/><path d="M139.428643,311.545986l5,5" transform="matrix(.767808 0.64068-.64068 0.767808 266.920773-25.07107)" fill="none" stroke="#fcfcc4" stroke-width="2.5"/><path d="M139.428643,311.545986l5,5" transform="matrix(.300317 0.95384-.95384 0.300317 471.253844 85.566023)" fill="none" stroke="#fcfcc4" stroke-width="2.5"/><path d="M139.428643,311.545986l5,5" transform="matrix(.4583 0.888797-.888797 0.4583 419.51234 41.561841)" fill="none" stroke="#fcfcc4" stroke-width="2.5"/><path d="M139.428643,311.545986l5,5" transform="matrix(.843012 0.537894-.537894 0.843012 214.230166-32.800746)" fill="none" stroke="#fcfcc4" stroke-width="2.5"/><path d="M138.761961,315.719666c15.038429-12.025138,49.413808-20.583796,82.304072-.483703" transform="matrix(.999912 0.01327-.01327 0.999912 4.705856 0.141228)" fill="none" stroke="#fcfcc4" stroke-width="2"/><path d="M139.428643,311.545986l5,5" transform="matrix(.647374 0.762172-.762172 0.647374 333.032561-4.205501)" fill="none" stroke="#fcfcc4" stroke-width="2.5"/></g><g transform="matrix(-.002868 0.604275-.741057-.003518 636.1577 279.024763)"><path d="" fill="none" stroke="#3f5787" stroke-width="1.024002"/><path d="M178.866475,287.593182c-26.685069,22.601231-27.569934,66.588225,0,93.881435c26.671692-25.633966,31.37917-66.440466,0-93.881435Z" transform="matrix(-.028714-1.463944 1.358162-.026639-269.381309 607.382293)" fill="#c79a25" stroke="#000" stroke-width="2" stroke-opacity="0.06" stroke-miterlimit="18"/><path d="M139.428643,311.545986l5,5" transform="matrix(.973184 0.230028-.230028 0.973184 80.581755-23.718098)" fill="none" stroke="#fcfcc4" stroke-width="2.5"/><path d="M139.428643,311.545986l5,5" transform="matrix(.927463 0.373914-.373914 0.927463 141.030913-33.433705)" fill="none" stroke="#fcfcc4" stroke-width="2.5"/><path d="M139.428643,311.545986l5,5" transform="matrix(.5344 0.845232-.845232 0.5344 385.897554 21.096424)" fill="none" stroke="#fcfcc4" stroke-width="2.5"/><path d="M139.428643,311.545986l5,5" transform="matrix(.767808 0.64068-.64068 0.767808 266.920773-25.07107)" fill="none" stroke="#fcfcc4" stroke-width="2.5"/><path d="M139.428643,311.545986l5,5" transform="matrix(.300317 0.95384-.95384 0.300317 471.253844 85.566023)" fill="none" stroke="#fcfcc4" stroke-width="2.5"/><path d="M139.428643,311.545986l5,5" transform="matrix(.4583 0.888797-.888797 0.4583 419.51234 41.561841)" fill="none" stroke="#fcfcc4" stroke-width="2.5"/><path d="M139.428643,311.545986l5,5" transform="matrix(.843012 0.537894-.537894 0.843012 214.230166-32.800746)" fill="none" stroke="#fcfcc4" stroke-width="2.5"/><path d="M138.761961,315.719666c15.038429-12.025138,49.413808-20.583796,82.304072-.483703" transform="matrix(.999912 0.01327-.01327 0.999912 4.705856 0.141228)" fill="none" stroke="#fcfcc4" stroke-width="2"/><path d="M139.428643,311.545986l5,5" transform="matrix(.647374 0.762172-.762172 0.647374 333.032561-4.205501)" fill="none" stroke="#fcfcc4" stroke-width="2.5"/></g><g transform="matrix(-.002868 0.604275-.741057-.003518 584.0905 123.779679)"><path d="" fill="none" stroke="#3f5787" stroke-width="1.024002"/><path d="M178.866475,287.593182c-26.685069,22.601231-27.569934,66.588225,0,93.881435c26.671692-25.633966,31.37917-66.440466,0-93.881435Z" transform="matrix(-.028714-1.463944 1.358162-.026639-269.381309 607.382293)" fill="#c79a25" stroke="#000" stroke-width="2" stroke-opacity="0.06" stroke-miterlimit="18"/><path d="M139.428643,311.545986l5,5" transform="matrix(.973184 0.230028-.230028 0.973184 80.581755-23.718098)" fill="none" stroke="#fcfcc4" stroke-width="2.5"/><path d="M139.428643,311.545986l5,5" transform="matrix(.927463 0.373914-.373914 0.927463 141.030913-33.433705)" fill="none" stroke="#fcfcc4" stroke-width="2.5"/><path d="M139.428643,311.545986l5,5" transform="matrix(.5344 0.845232-.845232 0.5344 385.897554 21.096424)" fill="none" stroke="#fcfcc4" stroke-width="2.5"/><path d="M139.428643,311.545986l5,5" transform="matrix(.767808 0.64068-.64068 0.767808 266.920773-25.07107)" fill="none" stroke="#fcfcc4" stroke-width="2.5"/><path d="M139.428643,311.545986l5,5" transform="matrix(.300317 0.95384-.95384 0.300317 471.253844 85.566023)" fill="none" stroke="#fcfcc4" stroke-width="2.5"/><path d="M139.428643,311.545986l5,5" transform="matrix(.4583 0.888797-.888797 0.4583 419.51234 41.561841)" fill="none" stroke="#fcfcc4" stroke-width="2.5"/><path d="M139.428643,311.545986l5,5" transform="matrix(.843012 0.537894-.537894 0.843012 214.230166-32.800746)" fill="none" stroke="#fcfcc4" stroke-width="2.5"/><path d="M138.761961,315.719666c15.038429-12.025138,49.413808-20.583796,82.304072-.483703" transform="matrix(.999912 0.01327-.01327 0.999912 4.705856 0.141228)" fill="none" stroke="#fcfcc4" stroke-width="2"/><path d="M139.428643,311.545986l5,5" transform="matrix(.647374 0.762172-.762172 0.647374 333.032561-4.205501)" fill="none" stroke="#fcfcc4" stroke-width="2.5"/></g><g transform="matrix(-.002868 0.604275-.741057-.003518 654.651539 174.333442)"><path d="" fill="none" stroke="#3f5787" stroke-width="1.024002"/><path d="M178.866475,287.593182c-26.685069,22.601231-27.569934,66.588225,0,93.881435c26.671692-25.633966,31.37917-66.440466,0-93.881435Z" transform="matrix(-.028714-1.463944 1.358162-.026639-269.381309 607.382293)" fill="#c79a25" stroke="#000" stroke-width="2" stroke-opacity="0.06" stroke-miterlimit="18"/><path d="M139.428643,311.545986l5,5" transform="matrix(.973184 0.230028-.230028 0.973184 80.581755-23.718098)" fill="none" stroke="#fcfcc4" stroke-width="2.5"/><path d="M139.428643,311.545986l5,5" transform="matrix(.927463 0.373914-.373914 0.927463 141.030913-33.433705)" fill="none" stroke="#fcfcc4" stroke-width="2.5"/><path d="M139.428643,311.545986l5,5" transform="matrix(.5344 0.845232-.845232 0.5344 385.897554 21.096424)" fill="none" stroke="#fcfcc4" stroke-width="2.5"/><path d="M139.428643,311.545986l5,5" transform="matrix(.767808 0.64068-.64068 0.767808 266.920773-25.07107)" fill="none" stroke="#fcfcc4" stroke-width="2.5"/><path d="M139.428643,311.545986l5,5" transform="matrix(.300317 0.95384-.95384 0.300317 471.253844 85.566023)" fill="none" stroke="#fcfcc4" stroke-width="2.5"/><path d="M139.428643,311.545986l5,5" transform="matrix(.4583 0.888797-.888797 0.4583 419.51234 41.561841)" fill="none" stroke="#fcfcc4" stroke-width="2.5"/><path d="M139.428643,311.545986l5,5" transform="matrix(.843012 0.537894-.537894 0.843012 214.230166-32.800746)" fill="none" stroke="#fcfcc4" stroke-width="2.5"/><path d="M138.761961,315.719666c15.038429-12.025138,49.413808-20.583796,82.304072-.483703" transform="matrix(.999912 0.01327-.01327 0.999912 4.705856 0.141228)" fill="none" stroke="#fcfcc4" stroke-width="2"/><path d="M139.428643,311.545986l5,5" transform="matrix(.647374 0.762172-.762172 0.647374 333.032561-4.205501)" fill="none" stroke="#fcfcc4" stroke-width="2.5"/></g><g transform="matrix(-.002868 0.604275-.741057-.003518 349.884725 204.28023)"><path d="" fill="none" stroke="#3f5787" stroke-width="1.024002"/><path d="M178.866475,287.593182c-26.685069,22.601231-27.569934,66.588225,0,93.881435c26.671692-25.633966,31.37917-66.440466,0-93.881435Z" transform="matrix(-.028714-1.463944 1.358162-.026639-269.381309 607.382293)" fill="#c79a25" stroke="#000" stroke-width="2" stroke-opacity="0.06" stroke-miterlimit="18"/><path d="M139.428643,311.545986l5,5" transform="matrix(.973184 0.230028-.230028 0.973184 80.581755-23.718098)" fill="none" stroke="#fcfcc4" stroke-width="2.5"/><path d="M139.428643,311.545986l5,5" transform="matrix(.927463 0.373914-.373914 0.927463 141.030913-33.433705)" fill="none" stroke="#fcfcc4" stroke-width="2.5"/><path d="M139.428643,311.545986l5,5" transform="matrix(.5344 0.845232-.845232 0.5344 385.897554 21.096424)" fill="none" stroke="#fcfcc4" stroke-width="2.5"/><path d="M139.428643,311.545986l5,5" transform="matrix(.767808 0.64068-.64068 0.767808 266.920773-25.07107)" fill="none" stroke="#fcfcc4" stroke-width="2.5"/><path d="M139.428643,311.545986l5,5" transform="matrix(.300317 0.95384-.95384 0.300317 471.253844 85.566023)" fill="none" stroke="#fcfcc4" stroke-width="2.5"/><path d="M139.428643,311.545986l5,5" transform="matrix(.4583 0.888797-.888797 0.4583 419.51234 41.561841)" fill="none" stroke="#fcfcc4" stroke-width="2.5"/><path d="M139.428643,311.545986l5,5" transform="matrix(.843012 0.537894-.537894 0.843012 214.230166-32.800746)" fill="none" stroke="#fcfcc4" stroke-width="2.5"/><path d="M138.761961,315.719666c15.038429-12.025138,49.413808-20.583796,82.304072-.483703" transform="matrix(.999912 0.01327-.01327 0.999912 4.705856 0.141228)" fill="none" stroke="#fcfcc4" stroke-width="2"/><path d="M139.428643,311.545986l5,5" transform="matrix(.647374 0.762172-.762172 0.647374 333.032561-4.205501)" fill="none" stroke="#fcfcc4" stroke-width="2.5"/></g><g transform="matrix(-.002868 0.604275-.741057-.003518 502.094197 163.039642)"><path d="" fill="none" stroke="#3f5787" stroke-width="1.024002"/><path d="M178.866475,287.593182c-26.685069,22.601231-27.569934,66.588225,0,93.881435c26.671692-25.633966,31.37917-66.440466,0-93.881435Z" transform="matrix(-.028714-1.463944 1.358162-.026639-269.381309 607.382293)" fill="#c79a25" stroke="#000" stroke-width="2" stroke-opacity="0.06" stroke-miterlimit="18"/><path d="M139.428643,311.545986l5,5" transform="matrix(.973184 0.230028-.230028 0.973184 80.581755-23.718098)" fill="none" stroke="#fcfcc4" stroke-width="2.5"/><path d="M139.428643,311.545986l5,5" transform="matrix(.927463 0.373914-.373914 0.927463 141.030913-33.433705)" fill="none" stroke="#fcfcc4" stroke-width="2.5"/><path d="M139.428643,311.545986l5,5" transform="matrix(.5344 0.845232-.845232 0.5344 385.897554 21.096424)" fill="none" stroke="#fcfcc4" stroke-width="2.5"/><path d="M139.428643,311.545986l5,5" transform="matrix(.767808 0.64068-.64068 0.767808 266.920773-25.07107)" fill="none" stroke="#fcfcc4" stroke-width="2.5"/><path d="M139.428643,311.545986l5,5" transform="matrix(.300317 0.95384-.95384 0.300317 471.253844 85.566023)" fill="none" stroke="#fcfcc4" stroke-width="2.5"/><path d="M139.428643,311.545986l5,5" transform="matrix(.4583 0.888797-.888797 0.4583 419.51234 41.561841)" fill="none" stroke="#fcfcc4" stroke-width="2.5"/><path d="M139.428643,311.545986l5,5" transform="matrix(.843012 0.537894-.537894 0.843012 214.230166-32.800746)" fill="none" stroke="#fcfcc4" stroke-width="2.5"/><path d="M138.761961,315.719666c15.038429-12.025138,49.413808-20.583796,82.304072-.483703" transform="matrix(.999912 0.01327-.01327 0.999912 4.705856 0.141228)" fill="none" stroke="#fcfcc4" stroke-width="2"/><path d="M139.428643,311.545986l5,5" transform="matrix(.647374 0.762172-.762172 0.647374 333.032561-4.205501)" fill="none" stroke="#fcfcc4" stroke-width="2.5"/></g></g></svg>
